<svg width="160" height="160" viewBox="0 0 160 160" fill="none" xmlns="http://www.w3.org/2000/svg">
<path d="M88.4749 40.4496C88.4749 35.769 84.6805 31.9746 79.9999 31.9746C75.3193 31.9746 71.5249 35.769 71.5249 40.4496V99.0892L57.7426 85.3069C54.4329 81.9972 49.0669 81.9972 45.7572 85.3069C42.4475 88.6166 42.4475 93.9827 45.7572 97.2923L74.0072 125.542C77.3169 128.852 82.6829 128.852 85.9926 125.542L114.243 97.2923C117.552 93.9827 117.552 88.6166 114.243 85.3069C110.933 81.9972 105.567 81.9972 102.257 85.3069L88.4749 99.0892V40.4496Z" fill="#FE9103"/>
<path fill-rule="evenodd" clip-rule="evenodd" d="M159.1 79.9996C159.1 36.3139 123.686 0.899633 79.9999 0.899633C36.3142 0.899633 0.899902 36.3139 0.899902 79.9996C0.899902 123.685 36.3142 159.1 79.9999 159.1C123.686 159.1 159.1 123.685 159.1 79.9996ZM142.15 79.9996C142.15 45.6751 114.324 17.8496 79.9999 17.8496C45.6754 17.8496 17.8499 45.6751 17.8499 79.9996C17.8499 114.324 45.6754 142.15 79.9999 142.15C114.324 142.15 142.15 114.324 142.15 79.9996Z" fill="#FE9103"/>
</svg>
