<svg width="2463" height="67" viewBox="0 0 2463 67" fill="none" xmlns="http://www.w3.org/2000/svg">
<path d="M612.353 66.3177V59.4077H513.098H413.855V66.3177H513.098H612.353Z" fill="white"/>
<path d="M612.353 7.91488V1.00488H513.098H413.855V7.91488H513.098H612.353Z" fill="white"/>
<path d="M607.789 20.9937L581.49 33.1267L607.789 45.2597V20.9937Z" fill="#FE9103"/>
<path d="M575.876 20.9937L549.576 33.1267L575.876 45.2597V20.9937Z" fill="#5B9600"/>
<path d="M543.962 20.9937L517.662 33.1267L543.962 45.2597V20.9937Z" fill="#FE9103"/>
<path d="M508.546 33.1267L482.246 20.9937V45.2597L508.546 33.1267Z" fill="#5B9600"/>
<path d="M476.632 33.1267L450.333 20.9937V45.2597L476.632 33.1267Z" fill="#FE9103"/>
<path d="M444.719 33.1267L418.419 20.9937V45.2597L444.719 33.1267Z" fill="#5B9600"/>
<path d="M405.914 66.3177V59.4077H306.671H207.428V66.3177H306.671H405.914Z" fill="#5B9600"/>
<path d="M405.914 7.91488V1.00488H306.671H207.428V7.91488H306.671H405.914Z" fill="#5B9600"/>
<path d="M401.362 20.9937L375.062 33.1267L401.362 45.2597V20.9937Z" fill="white"/>
<path d="M369.448 20.9937L343.149 33.1267L369.448 45.2597V20.9937Z" fill="#FE9103"/>
<path d="M337.535 20.9937L311.235 33.1267L337.535 45.2597V20.9937Z" fill="white"/>
<path d="M302.119 33.1267L275.819 20.9937V45.2597L302.119 33.1267Z" fill="#FE9103"/>
<path d="M270.205 33.1267L243.905 20.9937V45.2597L270.205 33.1267Z" fill="white"/>
<path d="M238.292 33.1267L211.992 20.9937V45.2597L238.292 33.1267Z" fill="#FE9103"/>
<path d="M199.487 66.3177V59.4077H100.244H1V66.3177H100.244H199.487Z" fill="#FE9103"/>
<path d="M199.487 7.91488V1.00488H100.244H1V7.91488H100.244H199.487Z" fill="#FE9103"/>
<path d="M194.934 20.9937L168.634 33.1267L194.934 45.2597V20.9937Z" fill="#5B9600"/>
<path d="M163.021 20.9937L136.721 33.1267L163.021 45.2597V20.9937Z" fill="white"/>
<path d="M131.107 20.9937L104.808 33.1267L131.107 45.2597V20.9937Z" fill="#5B9600"/>
<path d="M95.6801 33.1267L69.3911 20.9937V45.2597L95.6801 33.1267Z" fill="white"/>
<path d="M63.767 33.1267L37.478 20.9937V45.2597L63.767 33.1267Z" fill="#5B9600"/>
<path d="M31.8529 33.1267L5.56494 20.9937V45.2597L31.8529 33.1267Z" fill="white"/>
<path d="M5.56104 20.9878V45.2538L31.857 33.1208L5.56104 20.9878Z" stroke="black" stroke-width="1.2847" stroke-miterlimit="10" stroke-linecap="round" stroke-linejoin="round"/>
<path d="M37.4751 20.9878V45.2538L63.7701 33.1208L37.4751 20.9878Z" stroke="black" stroke-width="1.2847" stroke-miterlimit="10" stroke-linecap="round" stroke-linejoin="round"/>
<path d="M69.3882 20.9878V45.2538L95.6842 33.1208L69.3882 20.9878Z" stroke="black" stroke-width="1.2847" stroke-miterlimit="10" stroke-linecap="round" stroke-linejoin="round"/>
<path d="M194.929 45.2538V20.9878L168.633 33.1208L194.929 45.2538Z" stroke="black" stroke-width="1.2847" stroke-miterlimit="10" stroke-linecap="round" stroke-linejoin="round"/>
<path d="M163.015 45.2538V20.9878L136.72 33.1208L163.015 45.2538Z" stroke="black" stroke-width="1.2847" stroke-miterlimit="10" stroke-linecap="round" stroke-linejoin="round"/>
<path d="M131.102 45.2538V20.9878L104.806 33.1208L131.102 45.2538Z" stroke="black" stroke-width="1.2847" stroke-miterlimit="10" stroke-linecap="round" stroke-linejoin="round"/>
<path d="M1 59.4019V66.3119H100.245H199.49V59.4019H100.245H1Z" stroke="black" stroke-width="1.2847" stroke-miterlimit="10" stroke-linecap="round" stroke-linejoin="round"/>
<path d="M100.245 1H1V7.909H100.245H199.49V1H100.245Z" stroke="black" stroke-width="1.2847" stroke-miterlimit="10" stroke-linecap="round" stroke-linejoin="round"/>
<path d="M418.42 20.9878V45.2538L444.716 33.1208L418.42 20.9878Z" stroke="black" stroke-width="1.2847" stroke-miterlimit="10" stroke-linecap="round" stroke-linejoin="round"/>
<path d="M450.334 20.9878V45.2538L476.629 33.1208L450.334 20.9878Z" stroke="black" stroke-width="1.2847" stroke-miterlimit="10" stroke-linecap="round" stroke-linejoin="round"/>
<path d="M482.247 20.9878V45.2538L508.543 33.1208L482.247 20.9878Z" stroke="black" stroke-width="1.2847" stroke-miterlimit="10" stroke-linecap="round" stroke-linejoin="round"/>
<path d="M607.788 45.2538V20.9878L581.492 33.1208L607.788 45.2538Z" stroke="black" stroke-width="1.2847" stroke-miterlimit="10" stroke-linecap="round" stroke-linejoin="round"/>
<path d="M575.874 45.2538V20.9878L549.579 33.1208L575.874 45.2538Z" stroke="black" stroke-width="1.2847" stroke-miterlimit="10" stroke-linecap="round" stroke-linejoin="round"/>
<path d="M543.961 45.2538V20.9878L517.665 33.1208L543.961 45.2538Z" stroke="black" stroke-width="1.2847" stroke-miterlimit="10" stroke-linecap="round" stroke-linejoin="round"/>
<path d="M413.859 59.4019V66.3119H513.104H612.349V59.4019H513.104H413.859Z" stroke="black" stroke-width="1.2847" stroke-miterlimit="10" stroke-linecap="round" stroke-linejoin="round"/>
<path d="M513.104 1H413.859V7.909H513.104H612.349V1H513.104Z" stroke="black" stroke-width="1.2847" stroke-miterlimit="10" stroke-linecap="round" stroke-linejoin="round"/>
<path d="M211.99 20.9878V45.2538L238.286 33.1208L211.99 20.9878Z" stroke="black" stroke-width="1.2847" stroke-miterlimit="10" stroke-linecap="round" stroke-linejoin="round"/>
<path d="M243.904 20.9878V45.2538L270.2 33.1208L243.904 20.9878Z" stroke="black" stroke-width="1.2847" stroke-miterlimit="10" stroke-linecap="round" stroke-linejoin="round"/>
<path d="M275.818 20.9878V45.2538L302.113 33.1208L275.818 20.9878Z" stroke="black" stroke-width="1.2847" stroke-miterlimit="10" stroke-linecap="round" stroke-linejoin="round"/>
<path d="M401.358 45.2538V20.9878L375.063 33.1208L401.358 45.2538Z" stroke="black" stroke-width="1.2847" stroke-miterlimit="10" stroke-linecap="round" stroke-linejoin="round"/>
<path d="M369.445 45.2538V20.9878L343.149 33.1208L369.445 45.2538Z" stroke="black" stroke-width="1.2847" stroke-miterlimit="10" stroke-linecap="round" stroke-linejoin="round"/>
<path d="M337.531 45.2538V20.9878L311.236 33.1208L337.531 45.2538Z" stroke="black" stroke-width="1.2847" stroke-miterlimit="10" stroke-linecap="round" stroke-linejoin="round"/>
<path d="M207.429 59.4019V66.3119H306.674H405.919V59.4019H306.674H207.429Z" stroke="black" stroke-width="1.2847" stroke-miterlimit="10" stroke-linecap="round" stroke-linejoin="round"/>
<path d="M306.674 1H207.429V7.909H306.674H405.919V1H306.674Z" stroke="black" stroke-width="1.2847" stroke-miterlimit="10" stroke-linecap="round" stroke-linejoin="round"/>
<path d="M1231.64 66.3177V59.4077H1132.38H1033.14V66.3177H1132.38H1231.64Z" fill="white"/>
<path d="M1231.64 7.91488V1.00488H1132.38H1033.14V7.91488H1132.38H1231.64Z" fill="white"/>
<path d="M1227.07 20.9937L1200.78 33.1267L1227.07 45.2597V20.9937Z" fill="#FE9103"/>
<path d="M1195.16 20.9937L1168.86 33.1267L1195.16 45.2597V20.9937Z" fill="#5B9600"/>
<path d="M1163.25 20.9937L1136.95 33.1267L1163.25 45.2597V20.9937Z" fill="#FE9103"/>
<path d="M1127.83 33.1267L1101.53 20.9937V45.2597L1127.83 33.1267Z" fill="#5B9600"/>
<path d="M1095.92 33.1267L1069.62 20.9937V45.2597L1095.92 33.1267Z" fill="#FE9103"/>
<path d="M1064 33.1267L1037.7 20.9937V45.2597L1064 33.1267Z" fill="#5B9600"/>
<path d="M1025.2 66.3177V59.4077H925.956H826.713V66.3177H925.956H1025.2Z" fill="#5B9600"/>
<path d="M1025.2 7.91488V1.00488H925.956H826.713V7.91488H925.956H1025.2Z" fill="#5B9600"/>
<path d="M1020.65 20.9937L994.347 33.1267L1020.65 45.2597V20.9937Z" fill="white"/>
<path d="M988.733 20.9937L962.434 33.1267L988.733 45.2597V20.9937Z" fill="#FE9103"/>
<path d="M956.82 20.9937L930.52 33.1267L956.82 45.2597V20.9937Z" fill="white"/>
<path d="M921.404 33.1267L895.103 20.9937V45.2597L921.404 33.1267Z" fill="#FE9103"/>
<path d="M889.49 33.1267L863.19 20.9937V45.2597L889.49 33.1267Z" fill="white"/>
<path d="M857.577 33.1267L831.277 20.9937V45.2597L857.577 33.1267Z" fill="#FE9103"/>
<path d="M818.772 66.3177V59.4077H719.528H620.285V66.3177H719.528H818.772Z" fill="#FE9103"/>
<path d="M818.772 7.91488V1.00488H719.528H620.285V7.91488H719.528H818.772Z" fill="#FE9103"/>
<path d="M814.219 20.9937L787.919 33.1267L814.219 45.2597V20.9937Z" fill="#5B9600"/>
<path d="M782.306 20.9937L756.006 33.1267L782.306 45.2597V20.9937Z" fill="white"/>
<path d="M750.392 20.9937L724.092 33.1267L750.392 45.2597V20.9937Z" fill="#5B9600"/>
<path d="M714.965 33.1267L688.676 20.9937V45.2597L714.965 33.1267Z" fill="white"/>
<path d="M683.051 33.1267L656.763 20.9937V45.2597L683.051 33.1267Z" fill="#5B9600"/>
<path d="M651.138 33.1267L624.849 20.9937V45.2597L651.138 33.1267Z" fill="white"/>
<path d="M624.846 20.9878V45.2538L651.142 33.1208L624.846 20.9878Z" stroke="black" stroke-width="1.2847" stroke-miterlimit="10" stroke-linecap="round" stroke-linejoin="round"/>
<path d="M656.759 20.9878V45.2538L683.055 33.1208L656.759 20.9878Z" stroke="black" stroke-width="1.2847" stroke-miterlimit="10" stroke-linecap="round" stroke-linejoin="round"/>
<path d="M688.673 20.9878V45.2538L714.969 33.1208L688.673 20.9878Z" stroke="black" stroke-width="1.2847" stroke-miterlimit="10" stroke-linecap="round" stroke-linejoin="round"/>
<path d="M814.214 45.2538V20.9878L787.918 33.1208L814.214 45.2538Z" stroke="black" stroke-width="1.2847" stroke-miterlimit="10" stroke-linecap="round" stroke-linejoin="round"/>
<path d="M782.3 45.2538V20.9878L756.004 33.1208L782.3 45.2538Z" stroke="black" stroke-width="1.2847" stroke-miterlimit="10" stroke-linecap="round" stroke-linejoin="round"/>
<path d="M750.387 45.2538V20.9878L724.091 33.1208L750.387 45.2538Z" stroke="black" stroke-width="1.2847" stroke-miterlimit="10" stroke-linecap="round" stroke-linejoin="round"/>
<path d="M620.285 59.4019V66.3119H719.53H818.775V59.4019H719.53H620.285Z" stroke="black" stroke-width="1.2847" stroke-miterlimit="10" stroke-linecap="round" stroke-linejoin="round"/>
<path d="M719.53 1H620.285V7.909H719.53H818.775V1H719.53Z" stroke="black" stroke-width="1.2847" stroke-miterlimit="10" stroke-linecap="round" stroke-linejoin="round"/>
<path d="M1037.71 20.9878V45.2538L1064 33.1208L1037.71 20.9878Z" stroke="black" stroke-width="1.2847" stroke-miterlimit="10" stroke-linecap="round" stroke-linejoin="round"/>
<path d="M1069.62 20.9878V45.2538L1095.91 33.1208L1069.62 20.9878Z" stroke="black" stroke-width="1.2847" stroke-miterlimit="10" stroke-linecap="round" stroke-linejoin="round"/>
<path d="M1101.53 20.9878V45.2538L1127.83 33.1208L1101.53 20.9878Z" stroke="black" stroke-width="1.2847" stroke-miterlimit="10" stroke-linecap="round" stroke-linejoin="round"/>
<path d="M1227.07 45.2538V20.9878L1200.78 33.1208L1227.07 45.2538Z" stroke="black" stroke-width="1.2847" stroke-miterlimit="10" stroke-linecap="round" stroke-linejoin="round"/>
<path d="M1195.16 45.2538V20.9878L1168.86 33.1208L1195.16 45.2538Z" stroke="black" stroke-width="1.2847" stroke-miterlimit="10" stroke-linecap="round" stroke-linejoin="round"/>
<path d="M1163.25 45.2538V20.9878L1136.95 33.1208L1163.25 45.2538Z" stroke="black" stroke-width="1.2847" stroke-miterlimit="10" stroke-linecap="round" stroke-linejoin="round"/>
<path d="M1033.14 59.4019V66.3119H1132.39H1231.63V59.4019H1132.39H1033.14Z" stroke="black" stroke-width="1.2847" stroke-miterlimit="10" stroke-linecap="round" stroke-linejoin="round"/>
<path d="M1132.39 1H1033.14V7.909H1132.39H1231.63V1H1132.39Z" stroke="black" stroke-width="1.2847" stroke-miterlimit="10" stroke-linecap="round" stroke-linejoin="round"/>
<path d="M831.275 20.9878V45.2538L857.571 33.1208L831.275 20.9878Z" stroke="black" stroke-width="1.2847" stroke-miterlimit="10" stroke-linecap="round" stroke-linejoin="round"/>
<path d="M863.189 20.9878V45.2538L889.485 33.1208L863.189 20.9878Z" stroke="black" stroke-width="1.2847" stroke-miterlimit="10" stroke-linecap="round" stroke-linejoin="round"/>
<path d="M895.104 20.9878V45.2538L921.398 33.1208L895.104 20.9878Z" stroke="black" stroke-width="1.2847" stroke-miterlimit="10" stroke-linecap="round" stroke-linejoin="round"/>
<path d="M1020.64 45.2538V20.9878L994.349 33.1208L1020.64 45.2538Z" stroke="black" stroke-width="1.2847" stroke-miterlimit="10" stroke-linecap="round" stroke-linejoin="round"/>
<path d="M988.731 45.2538V20.9878L962.435 33.1208L988.731 45.2538Z" stroke="black" stroke-width="1.2847" stroke-miterlimit="10" stroke-linecap="round" stroke-linejoin="round"/>
<path d="M956.817 45.2538V20.9878L930.521 33.1208L956.817 45.2538Z" stroke="black" stroke-width="1.2847" stroke-miterlimit="10" stroke-linecap="round" stroke-linejoin="round"/>
<path d="M826.714 59.4019V66.3119H925.959H1025.2V59.4019H925.959H826.714Z" stroke="black" stroke-width="1.2847" stroke-miterlimit="10" stroke-linecap="round" stroke-linejoin="round"/>
<path d="M925.959 1H826.714V7.909H925.959H1025.2V1H925.959Z" stroke="black" stroke-width="1.2847" stroke-miterlimit="10" stroke-linecap="round" stroke-linejoin="round"/>
<path d="M1842.99 66.3177V59.4077H1743.74H1644.49V66.3177H1743.74H1842.99Z" fill="white"/>
<path d="M1842.99 7.91488V1.00488H1743.74H1644.49V7.91488H1743.74H1842.99Z" fill="white"/>
<path d="M1838.43 20.9937L1812.13 33.1267L1838.43 45.2597V20.9937Z" fill="#FE9103"/>
<path d="M1806.51 20.9937L1780.21 33.1267L1806.51 45.2597V20.9937Z" fill="#5B9600"/>
<path d="M1774.6 20.9937L1748.3 33.1267L1774.6 45.2597V20.9937Z" fill="#FE9103"/>
<path d="M1739.18 33.1267L1712.88 20.9937V45.2597L1739.18 33.1267Z" fill="#5B9600"/>
<path d="M1707.27 33.1267L1680.97 20.9937V45.2597L1707.27 33.1267Z" fill="#FE9103"/>
<path d="M1675.36 33.1267L1649.06 20.9937V45.2597L1675.36 33.1267Z" fill="#5B9600"/>
<path d="M1636.55 66.3177V59.4077H1537.31H1438.07V66.3177H1537.31H1636.55Z" fill="#5B9600"/>
<path d="M1636.55 7.91488V1.00488H1537.31H1438.07V7.91488H1537.31H1636.55Z" fill="#5B9600"/>
<path d="M1632 20.9937L1605.7 33.1267L1632 45.2597V20.9937Z" fill="white"/>
<path d="M1600.09 20.9937L1573.79 33.1267L1600.09 45.2597V20.9937Z" fill="#FE9103"/>
<path d="M1568.17 20.9937L1541.87 33.1267L1568.17 45.2597V20.9937Z" fill="white"/>
<path d="M1532.76 33.1267L1506.46 20.9937V45.2597L1532.76 33.1267Z" fill="#FE9103"/>
<path d="M1500.84 33.1267L1474.54 20.9937V45.2597L1500.84 33.1267Z" fill="white"/>
<path d="M1468.93 33.1267L1442.63 20.9937V45.2597L1468.93 33.1267Z" fill="#FE9103"/>
<path d="M1430.12 66.3177V59.4077H1330.88H1231.64V66.3177H1330.88H1430.12Z" fill="#FE9103"/>
<path d="M1430.12 7.91488V1.00488H1330.88H1231.64V7.91488H1330.88H1430.12Z" fill="#FE9103"/>
<path d="M1425.57 20.9937L1399.27 33.1267L1425.57 45.2597V20.9937Z" fill="#5B9600"/>
<path d="M1393.66 20.9937L1367.36 33.1267L1393.66 45.2597V20.9937Z" fill="white"/>
<path d="M1361.75 20.9937L1335.45 33.1267L1361.75 45.2597V20.9937Z" fill="#5B9600"/>
<path d="M1326.32 33.1267L1300.03 20.9937V45.2597L1326.32 33.1267Z" fill="white"/>
<path d="M1294.4 33.1267L1268.12 20.9937V45.2597L1294.4 33.1267Z" fill="#5B9600"/>
<path d="M1262.49 33.1267L1236.2 20.9937V45.2597L1262.49 33.1267Z" fill="white"/>
<path d="M1236.2 20.9878V45.2538L1262.49 33.1208L1236.2 20.9878Z" stroke="black" stroke-width="1.2847" stroke-miterlimit="10" stroke-linecap="round" stroke-linejoin="round"/>
<path d="M1268.11 20.9878V45.2538L1294.41 33.1208L1268.11 20.9878Z" stroke="black" stroke-width="1.2847" stroke-miterlimit="10" stroke-linecap="round" stroke-linejoin="round"/>
<path d="M1300.03 20.9878V45.2538L1326.32 33.1208L1300.03 20.9878Z" stroke="black" stroke-width="1.2847" stroke-miterlimit="10" stroke-linecap="round" stroke-linejoin="round"/>
<path d="M1425.57 45.2538V20.9878L1399.27 33.1208L1425.57 45.2538Z" stroke="black" stroke-width="1.2847" stroke-miterlimit="10" stroke-linecap="round" stroke-linejoin="round"/>
<path d="M1393.65 45.2538V20.9878L1367.36 33.1208L1393.65 45.2538Z" stroke="black" stroke-width="1.2847" stroke-miterlimit="10" stroke-linecap="round" stroke-linejoin="round"/>
<path d="M1361.74 45.2538V20.9878L1335.44 33.1208L1361.74 45.2538Z" stroke="black" stroke-width="1.2847" stroke-miterlimit="10" stroke-linecap="round" stroke-linejoin="round"/>
<path d="M1231.64 59.4019V66.3119H1330.88H1430.13V59.4019H1330.88H1231.64Z" stroke="black" stroke-width="1.2847" stroke-miterlimit="10" stroke-linecap="round" stroke-linejoin="round"/>
<path d="M1330.88 1H1231.64V7.909H1330.88H1430.13V1H1330.88Z" stroke="black" stroke-width="1.2847" stroke-miterlimit="10" stroke-linecap="round" stroke-linejoin="round"/>
<path d="M1649.06 20.9878V45.2538L1675.35 33.1208L1649.06 20.9878Z" stroke="black" stroke-width="1.2847" stroke-miterlimit="10" stroke-linecap="round" stroke-linejoin="round"/>
<path d="M1680.97 20.9878V45.2538L1707.27 33.1208L1680.97 20.9878Z" stroke="black" stroke-width="1.2847" stroke-miterlimit="10" stroke-linecap="round" stroke-linejoin="round"/>
<path d="M1712.89 20.9878V45.2538L1739.18 33.1208L1712.89 20.9878Z" stroke="black" stroke-width="1.2847" stroke-miterlimit="10" stroke-linecap="round" stroke-linejoin="round"/>
<path d="M1838.43 45.2538V20.9878L1812.13 33.1208L1838.43 45.2538Z" stroke="black" stroke-width="1.2847" stroke-miterlimit="10" stroke-linecap="round" stroke-linejoin="round"/>
<path d="M1806.51 45.2538V20.9878L1780.22 33.1208L1806.51 45.2538Z" stroke="black" stroke-width="1.2847" stroke-miterlimit="10" stroke-linecap="round" stroke-linejoin="round"/>
<path d="M1774.6 45.2538V20.9878L1748.3 33.1208L1774.6 45.2538Z" stroke="black" stroke-width="1.2847" stroke-miterlimit="10" stroke-linecap="round" stroke-linejoin="round"/>
<path d="M1644.5 59.4019V66.3119H1743.74H1842.99V59.4019H1743.74H1644.5Z" stroke="black" stroke-width="1.2847" stroke-miterlimit="10" stroke-linecap="round" stroke-linejoin="round"/>
<path d="M1743.74 1H1644.5V7.909H1743.74H1842.99V1H1743.74Z" stroke="black" stroke-width="1.2847" stroke-miterlimit="10" stroke-linecap="round" stroke-linejoin="round"/>
<path d="M1442.63 20.9878V45.2538L1468.92 33.1208L1442.63 20.9878Z" stroke="black" stroke-width="1.2847" stroke-miterlimit="10" stroke-linecap="round" stroke-linejoin="round"/>
<path d="M1474.54 20.9878V45.2538L1500.84 33.1208L1474.54 20.9878Z" stroke="black" stroke-width="1.2847" stroke-miterlimit="10" stroke-linecap="round" stroke-linejoin="round"/>
<path d="M1506.46 20.9878V45.2538L1532.75 33.1208L1506.46 20.9878Z" stroke="black" stroke-width="1.2847" stroke-miterlimit="10" stroke-linecap="round" stroke-linejoin="round"/>
<path d="M1632 45.2538V20.9878L1605.7 33.1208L1632 45.2538Z" stroke="black" stroke-width="1.2847" stroke-miterlimit="10" stroke-linecap="round" stroke-linejoin="round"/>
<path d="M1600.08 45.2538V20.9878L1573.79 33.1208L1600.08 45.2538Z" stroke="black" stroke-width="1.2847" stroke-miterlimit="10" stroke-linecap="round" stroke-linejoin="round"/>
<path d="M1568.17 45.2538V20.9878L1541.87 33.1208L1568.17 45.2538Z" stroke="black" stroke-width="1.2847" stroke-miterlimit="10" stroke-linecap="round" stroke-linejoin="round"/>
<path d="M1438.07 59.4019V66.3119H1537.31H1636.56V59.4019H1537.31H1438.07Z" stroke="black" stroke-width="1.2847" stroke-miterlimit="10" stroke-linecap="round" stroke-linejoin="round"/>
<path d="M1537.31 1H1438.07V7.909H1537.31H1636.56V1H1537.31Z" stroke="black" stroke-width="1.2847" stroke-miterlimit="10" stroke-linecap="round" stroke-linejoin="round"/>
<path d="M2462.28 66.3177V59.4077H2363.02H2263.78V66.3177H2363.02H2462.28Z" fill="white"/>
<path d="M2462.28 7.91488V1.00488H2363.02H2263.78V7.91488H2363.02H2462.28Z" fill="white"/>
<path d="M2457.71 20.9937L2431.41 33.1267L2457.71 45.2597V20.9937Z" fill="#FE9103"/>
<path d="M2425.8 20.9937L2399.5 33.1267L2425.8 45.2597V20.9937Z" fill="#5B9600"/>
<path d="M2393.88 20.9937L2367.58 33.1267L2393.88 45.2597V20.9937Z" fill="#FE9103"/>
<path d="M2358.47 33.1267L2332.17 20.9937V45.2597L2358.47 33.1267Z" fill="#5B9600"/>
<path d="M2326.55 33.1267L2300.26 20.9937V45.2597L2326.55 33.1267Z" fill="#FE9103"/>
<path d="M2294.64 33.1267L2268.34 20.9937V45.2597L2294.64 33.1267Z" fill="#5B9600"/>
<path d="M2255.84 66.3177V59.4077H2156.59H2057.35V66.3177H2156.59H2255.84Z" fill="#5B9600"/>
<path d="M2255.84 7.91488V1.00488H2156.59H2057.35V7.91488H2156.59H2255.84Z" fill="#5B9600"/>
<path d="M2251.28 20.9937L2224.98 33.1267L2251.28 45.2597V20.9937Z" fill="white"/>
<path d="M2219.37 20.9937L2193.07 33.1267L2219.37 45.2597V20.9937Z" fill="#FE9103"/>
<path d="M2187.46 20.9937L2161.16 33.1267L2187.46 45.2597V20.9937Z" fill="white"/>
<path d="M2152.04 33.1267L2125.74 20.9937V45.2597L2152.04 33.1267Z" fill="#FE9103"/>
<path d="M2120.13 33.1267L2093.83 20.9937V45.2597L2120.13 33.1267Z" fill="white"/>
<path d="M2088.21 33.1267L2061.91 20.9937V45.2597L2088.21 33.1267Z" fill="#FE9103"/>
<path d="M2049.41 66.3177V59.4077H1950.17H1850.92V66.3177H1950.17H2049.41Z" fill="#FE9103"/>
<path d="M2049.41 7.91488V1.00488H1950.17H1850.92V7.91488H1950.17H2049.41Z" fill="#FE9103"/>
<path d="M2044.86 20.9937L2018.56 33.1267L2044.86 45.2597V20.9937Z" fill="#5B9600"/>
<path d="M2012.94 20.9937L1986.64 33.1267L2012.94 45.2597V20.9937Z" fill="white"/>
<path d="M1981.03 20.9937L1954.73 33.1267L1981.03 45.2597V20.9937Z" fill="#5B9600"/>
<path d="M1945.6 33.1267L1919.31 20.9937V45.2597L1945.6 33.1267Z" fill="white"/>
<path d="M1913.69 33.1267L1887.4 20.9937V45.2597L1913.69 33.1267Z" fill="#5B9600"/>
<path d="M1881.78 33.1267L1855.49 20.9937V45.2597L1881.78 33.1267Z" fill="white"/>
<path d="M1855.48 20.9878V45.2538L1881.78 33.1208L1855.48 20.9878Z" stroke="black" stroke-width="1.2847" stroke-miterlimit="10" stroke-linecap="round" stroke-linejoin="round"/>
<path d="M1887.4 20.9878V45.2538L1913.69 33.1208L1887.4 20.9878Z" stroke="black" stroke-width="1.2847" stroke-miterlimit="10" stroke-linecap="round" stroke-linejoin="round"/>
<path d="M1919.31 20.9878V45.2538L1945.61 33.1208L1919.31 20.9878Z" stroke="black" stroke-width="1.2847" stroke-miterlimit="10" stroke-linecap="round" stroke-linejoin="round"/>
<path d="M2044.85 45.2538V20.9878L2018.56 33.1208L2044.85 45.2538Z" stroke="black" stroke-width="1.2847" stroke-miterlimit="10" stroke-linecap="round" stroke-linejoin="round"/>
<path d="M2012.94 45.2538V20.9878L1986.64 33.1208L2012.94 45.2538Z" stroke="black" stroke-width="1.2847" stroke-miterlimit="10" stroke-linecap="round" stroke-linejoin="round"/>
<path d="M1981.03 45.2538V20.9878L1954.73 33.1208L1981.03 45.2538Z" stroke="black" stroke-width="1.2847" stroke-miterlimit="10" stroke-linecap="round" stroke-linejoin="round"/>
<path d="M1850.92 59.4019V66.3119H1950.17H2049.41V59.4019H1950.17H1850.92Z" stroke="black" stroke-width="1.2847" stroke-miterlimit="10" stroke-linecap="round" stroke-linejoin="round"/>
<path d="M1950.17 1H1850.92V7.909H1950.17H2049.41V1H1950.17Z" stroke="black" stroke-width="1.2847" stroke-miterlimit="10" stroke-linecap="round" stroke-linejoin="round"/>
<path d="M2268.34 20.9878V45.2538L2294.64 33.1208L2268.34 20.9878Z" stroke="black" stroke-width="1.2847" stroke-miterlimit="10" stroke-linecap="round" stroke-linejoin="round"/>
<path d="M2300.26 20.9878V45.2538L2326.55 33.1208L2300.26 20.9878Z" stroke="black" stroke-width="1.2847" stroke-miterlimit="10" stroke-linecap="round" stroke-linejoin="round"/>
<path d="M2332.17 20.9878V45.2538L2358.47 33.1208L2332.17 20.9878Z" stroke="black" stroke-width="1.2847" stroke-miterlimit="10" stroke-linecap="round" stroke-linejoin="round"/>
<path d="M2457.71 45.2538V20.9878L2431.42 33.1208L2457.71 45.2538Z" stroke="black" stroke-width="1.2847" stroke-miterlimit="10" stroke-linecap="round" stroke-linejoin="round"/>
<path d="M2425.8 45.2538V20.9878L2399.5 33.1208L2425.8 45.2538Z" stroke="black" stroke-width="1.2847" stroke-miterlimit="10" stroke-linecap="round" stroke-linejoin="round"/>
<path d="M2393.88 45.2538V20.9878L2367.59 33.1208L2393.88 45.2538Z" stroke="black" stroke-width="1.2847" stroke-miterlimit="10" stroke-linecap="round" stroke-linejoin="round"/>
<path d="M2263.78 59.4019V66.3119H2363.03H2462.27V59.4019H2363.03H2263.78Z" stroke="black" stroke-width="1.2847" stroke-miterlimit="10" stroke-linecap="round" stroke-linejoin="round"/>
<path d="M2363.03 1H2263.78V7.909H2363.03H2462.27V1H2363.03Z" stroke="black" stroke-width="1.2847" stroke-miterlimit="10" stroke-linecap="round" stroke-linejoin="round"/>
<path d="M2061.91 20.9878V45.2538L2088.21 33.1208L2061.91 20.9878Z" stroke="black" stroke-width="1.2847" stroke-miterlimit="10" stroke-linecap="round" stroke-linejoin="round"/>
<path d="M2093.83 20.9878V45.2538L2120.12 33.1208L2093.83 20.9878Z" stroke="black" stroke-width="1.2847" stroke-miterlimit="10" stroke-linecap="round" stroke-linejoin="round"/>
<path d="M2125.74 20.9878V45.2538L2152.04 33.1208L2125.74 20.9878Z" stroke="black" stroke-width="1.2847" stroke-miterlimit="10" stroke-linecap="round" stroke-linejoin="round"/>
<path d="M2251.28 45.2538V20.9878L2224.99 33.1208L2251.28 45.2538Z" stroke="black" stroke-width="1.2847" stroke-miterlimit="10" stroke-linecap="round" stroke-linejoin="round"/>
<path d="M2219.37 45.2538V20.9878L2193.07 33.1208L2219.37 45.2538Z" stroke="black" stroke-width="1.2847" stroke-miterlimit="10" stroke-linecap="round" stroke-linejoin="round"/>
<path d="M2187.45 45.2538V20.9878L2161.16 33.1208L2187.45 45.2538Z" stroke="black" stroke-width="1.2847" stroke-miterlimit="10" stroke-linecap="round" stroke-linejoin="round"/>
<path d="M2057.35 59.4019V66.3119H2156.6H2255.84V59.4019H2156.6H2057.35Z" stroke="black" stroke-width="1.2847" stroke-miterlimit="10" stroke-linecap="round" stroke-linejoin="round"/>
<path d="M2156.6 1H2057.35V7.909H2156.6H2255.84V1H2156.6Z" stroke="black" stroke-width="1.2847" stroke-miterlimit="10" stroke-linecap="round" stroke-linejoin="round"/>
</svg>
