<svg width="1440" height="619" viewBox="0 0 1440 619" fill="none" xmlns="http://www.w3.org/2000/svg">
<mask id="mask0_38_25750" style="mask-type:luminance" maskUnits="userSpaceOnUse" x="0" y="0" width="1532" height="701">
<path d="M1532 0.977051H0V700.484H1532V0.977051Z" fill="white"/>
</mask>
<g mask="url(#mask0_38_25750)">
<path d="M632.466 509.221C646.501 513.507 667.839 519.628 681.542 524.083C805.804 562.959 932.101 601.287 1064.55 617.287C1146.21 627.101 1230.8 625.148 1311.68 610.458C1419.31 591.614 1521.05 554.002 1620.33 518.219L1599.09 483.79C1484.95 537.612 1364.53 582.934 1230.97 595.091C1156.1 601.895 1079.69 601.992 1005.26 591.26C901.213 576.211 800.921 547.679 701.973 518.114C686.618 513.528 670.729 508.935 654.925 504.244C641.448 500.265 622.995 494.898 609.678 491.434C597.258 488.183 575.864 483.022 563.521 480.367C447.602 455.353 324.602 449.737 206.317 465.509C212.468 469.268 219.125 472.98 226.286 476.645C344.353 460.772 468.075 469.631 582.655 496.56C597.141 499.637 617.954 505.563 632.466 509.221Z" fill="#568B04"/>
<path d="M1150.29 579.705C1081.9 580.79 1013.2 576.882 945.971 565.213C852.245 548.956 761.433 522.323 671.37 496.306C657.711 492.355 642.985 488.371 628.283 484.405C615.095 480.822 599.379 476.614 586.867 473.63C576.43 471.128 554.647 466.272 544.36 464.156C426.957 439.884 303.107 435.423 183.719 449.926C190.39 455.139 197.893 460.36 206.316 465.51C324.599 449.738 447.601 455.354 563.519 480.368C575.864 483.023 597.258 488.184 609.677 491.435C622.993 494.899 641.447 500.265 654.923 504.245C670.727 508.937 686.615 513.529 701.971 518.115C800.919 547.681 901.212 576.212 1005.26 591.261C1079.69 601.993 1156.1 601.896 1230.97 595.092C1364.53 582.935 1484.95 537.613 1599.08 483.791L1577.86 449.343C1448.85 521.203 1310.53 577.173 1150.29 579.705Z" fill="#FFE3C5"/>
<path d="M544.36 464.154C554.648 466.27 576.431 471.127 586.867 473.629C599.38 476.612 615.096 480.821 628.284 484.404C642.985 488.37 657.712 492.354 671.37 496.305C761.434 522.322 852.245 548.955 945.972 565.212C1013.2 576.88 1081.9 580.788 1150.29 579.704C1310.53 577.173 1448.85 521.202 1577.86 449.341L1556.62 414.913C1412.75 504.812 1256.18 575.655 1069.59 564.319C921.328 556.427 779.743 514.542 640.743 474.479C617.246 468.255 587.931 461.069 564.08 455.823C555.63 454.09 533.392 449.596 525.228 447.96C407.275 425.878 284.745 418.227 164.265 429.47C163.371 429.558 162.5 429.645 161.607 429.734C167.754 436.384 175.044 443.156 183.723 449.924C303.109 435.422 426.958 439.884 544.36 464.154Z" fill="#FE9103"/>
<path d="M105.692 484.44C67.683 493.795 29.3507 502.907 -6.09952 517.521C-10.9876 519.545 -15.7595 521.844 -20.6667 523.925C-20.9348 524.034 -21.8384 524.536 -22.1053 524.664C-22.3279 524.77 -22.5925 524.916 -22.7469 525.001L-22.7852 525.097L-7.20424 550.989L-7.12285 550.853C-7.07976 550.814 -6.86073 550.67 -6.73147 550.568L-5.83741 549.935C19.0815 534.12 47.4391 522.499 76.419 511.932C124.488 495.115 174.858 483.534 226.283 476.642C219.122 472.977 212.465 469.266 206.315 465.506C172.28 470.021 138.655 476.33 105.692 484.44Z" fill="#5B9600"/>
<path d="M-22.104 524.665C-21.8371 524.538 -20.9334 524.036 -20.6653 523.927C-15.7582 521.846 -10.9862 519.546 -6.09818 517.522C29.3521 502.908 67.6844 493.796 105.694 484.442C138.657 476.331 172.282 470.022 206.318 465.509C197.896 460.359 190.393 455.138 183.721 449.926C167.385 451.908 151.126 454.243 134.989 456.946C83.938 465.468 32.7237 474.526 -15.6313 490.722C-22.2596 492.939 -28.9393 495.366 -35.4934 497.916C-36.0524 498.135 -36.944 498.524 -37.4778 498.761C-37.7687 498.872 -38.1026 499.021 -38.3683 499.15L-38.3887 499.169L-38.3875 499.188L-22.7814 525.097L-22.7431 525.001C-22.5911 524.919 -22.3266 524.772 -22.104 524.665Z" fill="#FFE3C5"/>
<path d="M-37.4792 498.761C-36.9442 498.524 -36.0538 498.135 -35.4948 497.916C-28.9407 495.366 -22.261 492.939 -15.6327 490.722C32.7223 474.527 83.9353 465.469 134.988 456.946C151.123 454.243 167.384 451.909 183.72 449.926C175.041 443.157 167.751 436.386 161.604 429.735C98.1817 435.848 35.3398 446.545 -25.1646 463.92C-34.7707 466.738 -44.6916 469.65 -53.9722 473.277L-38.3901 499.169L-38.3697 499.15C-38.104 499.022 -37.7701 498.872 -37.4792 498.761Z" fill="#FE9103"/>
<path d="M-22.7876 525.091L-22.7433 525.002C-22.5973 524.919 -22.3244 524.763 -22.1078 524.665C-21.8373 524.542 -20.9372 524.042 -20.6619 523.926C-15.7512 521.852 -10.9792 519.543 -6.10077 517.53C29.3567 502.906 67.6902 493.797 105.696 484.441C253.244 448.121 414.231 448.158 563.509 480.361C575.868 483.027 597.257 488.191 609.667 491.427C623.005 494.904 641.452 500.264 654.915 504.252C670.727 508.936 686.617 513.528 701.979 518.118C800.928 547.683 901.225 576.216 1005.27 591.257C1079.7 601.988 1156.09 601.898 1230.98 595.084C1364.54 582.932 1484.95 537.607 1599.09 483.787" stroke="black" stroke-width="0.4282" stroke-miterlimit="10" stroke-linecap="round" stroke-linejoin="round"/>
<path d="M-38.3848 499.187L-38.362 499.142C-38.1023 499.027 -37.7791 498.878 -37.4847 498.757C-36.9318 498.531 -36.0556 498.13 -35.4967 497.914C-28.9414 495.375 -22.2557 492.945 -15.6358 490.728C32.7288 474.535 83.9287 465.477 134.983 456.955C269.107 434.566 410.908 436.559 544.363 464.159C554.64 466.271 576.44 471.13 586.872 473.623C599.383 476.614 615.092 480.824 628.294 484.413C642.977 488.379 657.699 492.352 671.357 496.298C761.425 522.326 852.251 548.953 945.966 565.217C1013.19 576.876 1081.9 580.78 1150.29 579.704C1310.54 577.182 1448.85 521.209 1577.86 449.349" stroke="black" stroke-width="0.4282" stroke-miterlimit="10" stroke-linecap="round" stroke-linejoin="round"/>
<path d="M-7.19086 550.996L-7.12384 550.861C-7.09032 550.81 -6.85454 550.666 -6.73126 550.573L-5.82762 549.938C19.0817 534.113 47.4405 522.497 76.4085 511.928C234.874 456.501 418.171 457.901 582.653 496.563C597.144 499.628 617.954 505.555 632.461 509.23C646.494 513.5 667.845 519.626 681.534 524.09C805.807 562.956 932.097 601.294 1064.56 617.295C1146.22 627.1 1230.81 625.149 1311.68 610.462C1419.31 591.606 1521.04 554.003 1620.32 518.224L1556.63 414.912C1412.76 504.813 1256.19 575.654 1069.59 564.325C921.317 556.429 779.732 514.533 640.736 474.478C617.234 468.248 587.934 461.078 564.078 455.819C555.617 454.101 533.387 449.591 525.216 447.955C407.276 425.889 284.746 418.219 164.269 429.467C99.9259 435.549 36.1647 446.303 -25.1727 463.925C-34.7716 466.73 -44.6913 469.645 -53.9839 473.281L-7.19086 550.996Z" stroke="black" stroke-width="1.2847" stroke-miterlimit="10" stroke-linecap="round" stroke-linejoin="round"/>
</g>
</svg>
